<svg width="115" height="114" viewBox="0 0 115 114" fill="none" xmlns="http://www.w3.org/2000/svg">
<mask id="path-1-inside-1_1173_1535" fill="white">
<path d="M29.3522 5.73707C34.1053 2.04162 40.3208 0 46.4963 0C50.1924 0 53.1802 1.26603 55.4482 3.27914C56.0595 3.82091 56.6022 4.4083 57.0878 5.01281C57.5733 4.4083 58.1161 3.82091 58.7273 3.27914C60.9953 1.26603 63.9831 0 67.6793 0C73.8548 0 80.076 2.04162 84.8176 5.73707C88.5195 8.6056 91.4158 12.5691 92.5527 17.3538C94.952 17.753 97.0829 18.9734 98.8082 20.5873C101.55 23.1593 103.51 26.8775 104.738 30.7042C105.989 34.5878 106.612 38.9505 106.423 43.1421C106.326 45.2863 106.012 47.4762 105.412 49.5692L105.783 49.7403C107.897 50.7326 109.611 52.2894 110.896 54.3596C113.324 58.266 114.181 63.889 114.181 71.0575C114.181 79.2981 111.022 84.8926 106.966 88.3657C104.853 90.1744 102.381 91.5156 99.7108 92.3006C98.7421 96.7571 96.7514 100.929 93.8952 104.488C89.7648 109.643 83.3437 114 74.7174 114C67.8049 114 62.3607 110.179 58.8644 106.529C58.2444 105.877 57.6535 105.198 57.0935 104.493C56.5314 105.196 55.9386 105.873 55.3168 106.524C51.8206 110.185 46.3763 114 39.4639 114C30.8318 114 24.4107 109.643 20.2861 104.488C17.4256 100.93 15.4309 96.7582 14.459 92.3006C11.7912 91.515 9.32042 90.1739 7.20952 88.3657C3.15345 84.8869 0 79.2981 0 71.0575C0 63.889 0.856917 58.266 3.27913 54.3596C4.56425 52.2328 6.48114 50.5584 8.7634 49.5692C8.17646 47.4735 7.8371 45.3165 7.75224 43.1421C7.56371 38.9505 8.18641 34.5878 9.4375 30.7042C10.6658 26.8832 12.6195 23.1593 15.3674 20.5873C17.0859 18.9151 19.263 17.7897 21.6229 17.3538C22.7654 12.5634 25.6561 8.6056 29.3522 5.73707ZM34.6194 12.4835C31.5002 14.9073 29.6722 18.1351 29.6722 21.8533C29.6716 22.5307 29.51 23.1982 29.2005 23.801C28.891 24.4038 28.4425 24.9246 27.8919 25.3205C27.3413 25.7164 26.7045 25.9762 26.0337 26.0783C25.3629 26.1805 24.6774 26.1221 24.0336 25.9081C23.251 25.6457 22.4226 25.7085 21.2344 26.8262C19.909 28.0637 18.5665 30.305 17.5953 33.3161C16.6239 36.3662 16.1909 39.5618 16.3157 42.76C16.4585 45.9308 17.2126 48.5655 18.4009 50.3448C18.5975 50.6396 18.7567 50.9576 18.875 51.2914H25.0562C29.1692 51.2906 33.1301 52.8437 36.143 55.6387C39.1559 58.4337 40.9975 62.2635 41.2977 66.3584C43.7586 67.3386 45.8018 69.1423 47.0775 71.4606C48.3532 73.7789 48.782 76.4677 48.2907 79.0669C47.7994 81.666 46.4184 84.0139 44.3841 85.7087C42.3498 87.4035 39.7887 88.3398 37.1391 88.3573C34.4895 88.3749 31.9162 87.4726 29.8596 85.8049C27.8029 84.1373 26.3908 81.8079 25.865 79.2154C25.3392 76.623 25.7323 73.9287 26.977 71.5937C28.2218 69.2587 30.2408 67.4282 32.6885 66.4154C32.4172 64.5886 31.497 62.92 30.096 61.714C28.6949 60.508 26.9062 59.8449 25.0562 59.8457H10.0602C9.20328 61.8303 8.56916 65.2577 8.56916 71.0575C8.56916 76.8801 10.6886 80.0737 12.7909 81.8758C15.0932 83.8433 17.6239 84.3566 18.3551 84.3566C19.4915 84.3566 20.5813 84.8072 21.3848 85.6093C22.1883 86.4114 22.6397 87.4993 22.6397 88.6337C22.6397 91.0289 23.9651 95.3802 26.9814 99.1441C29.8835 102.777 34.0196 105.446 39.4639 105.446C43.1029 105.446 46.4506 103.404 49.1184 100.621C50.4095 99.2638 51.415 97.8552 52.0777 96.7147C52.3284 96.2881 52.548 95.844 52.7346 95.3859L52.7689 95.3061V41.3115H47.6503C46.6559 43.7652 44.8377 45.7973 42.5071 47.0596C40.1765 48.3218 37.4787 48.7356 34.876 48.23C32.2733 47.7244 29.9278 46.3309 28.2415 44.2883C26.5551 42.2457 25.6329 39.6812 25.6329 37.0343C25.6329 34.3874 26.5551 31.8229 28.2415 29.7803C29.9278 27.7377 32.2733 26.3442 34.876 25.8386C37.4787 25.333 40.1765 25.7468 42.5071 27.0091C44.8377 28.2713 46.6559 30.3034 47.6503 32.7572H52.7689V18.2833L52.7518 17.9583C52.654 16.2019 52.3078 14.4682 51.7235 12.8086C51.2093 11.4399 50.5409 10.3735 49.7526 9.67204C49.0499 9.04472 48.0787 8.55428 46.4963 8.55428C42.1203 8.55428 37.7843 10.0256 34.6137 12.4892L34.6194 12.4835ZM61.4123 85.5086V95.3061L61.4409 95.3859C61.5552 95.6881 61.7722 96.1387 62.1036 96.7147C62.7606 97.8552 63.766 99.2638 65.0628 100.621C67.725 103.404 71.0784 105.446 74.7174 105.446C80.156 105.446 84.292 102.777 87.1998 99.1441C90.2104 95.3802 91.5415 91.0232 91.5415 88.6337C91.5415 87.4993 91.9929 86.4114 92.7964 85.6093C93.5999 84.8072 94.6898 84.3566 95.8261 84.3566C96.5573 84.3566 99.0824 83.8433 101.39 81.8758C103.487 80.0737 105.606 76.8801 105.606 71.0575C105.606 64.1685 104.704 60.6213 103.613 58.8705C103.271 58.2651 102.753 57.7777 102.127 57.4733C101.55 57.1996 100.682 56.9943 99.3394 56.9943C98.564 56.9942 97.8031 56.7841 97.1378 56.3863C96.4726 55.9884 95.928 55.4178 95.5621 54.7353C95.1962 54.0528 95.0227 53.2839 95.0602 52.5107C95.0976 51.7375 95.3446 50.9889 95.7747 50.3448C96.9629 48.5598 97.717 45.9308 97.8656 42.76C97.9884 39.5614 97.5535 36.3659 96.5802 33.3161C95.609 30.305 94.2665 28.0694 92.9469 26.8262C91.7529 25.7085 90.9245 25.6457 90.1476 25.9081C89.5035 26.1232 88.8174 26.1824 88.1458 26.0808C87.4743 25.9792 86.8366 25.7197 86.2853 25.3236C85.734 24.9276 85.2849 24.4064 84.9751 23.803C84.6653 23.1996 84.5036 22.5314 84.5034 21.8533C84.5034 18.1351 82.6753 14.9073 79.5561 12.4835C76.3969 10.0256 72.0552 8.54857 67.6735 8.54857C66.0968 8.54857 65.1314 9.04472 64.423 9.66633C63.5286 10.5419 62.8551 11.6169 62.4578 12.8029C61.8171 14.5619 61.4641 16.4124 61.4123 18.2833V76.9543H65.0457C67.0911 76.9543 69.0527 76.1432 70.499 74.6993C71.9454 73.2555 72.7579 71.2973 72.7579 69.2554V59.0188C70.2999 58.0262 68.2642 56.2111 66.9998 53.8846C65.7353 51.558 65.3208 48.8649 65.8273 46.2667C66.3338 43.6686 67.7297 41.3272 69.7759 39.6437C71.822 37.9603 74.391 37.0397 77.0425 37.0397C79.694 37.0397 82.263 37.9603 84.3091 39.6437C86.3552 41.3272 87.7512 43.6686 88.2577 46.2667C88.7641 48.8649 88.3496 51.558 87.0852 53.8846C85.8207 56.2111 83.7851 58.0262 81.3271 59.0188V69.2554C81.3271 73.566 79.6117 77.7001 76.5584 80.7481C73.505 83.7962 69.3638 85.5086 65.0457 85.5086H61.4123ZM37.0531 34.1829C36.2955 34.1829 35.569 34.4833 35.0333 35.0181C34.4976 35.5528 34.1967 36.2781 34.1967 37.0343C34.1967 37.7906 34.4976 38.5158 35.0333 39.0506C35.569 39.5853 36.2955 39.8857 37.0531 39.8857C37.8106 39.8857 38.5372 39.5853 39.0728 39.0506C39.6085 38.5158 39.9094 37.7906 39.9094 37.0343C39.9094 36.2781 39.6085 35.5528 39.0728 35.0181C38.5372 34.4833 37.8106 34.1829 37.0531 34.1829ZM34.1967 76.9543C34.1967 77.7105 34.4976 78.4358 35.0333 78.9705C35.569 79.5053 36.2955 79.8057 37.0531 79.8057C37.8106 79.8057 38.5372 79.5053 39.0728 78.9705C39.6085 78.4358 39.9094 77.7105 39.9094 76.9543C39.9094 76.198 39.6085 75.4728 39.0728 74.938C38.5372 74.4033 37.8106 74.1028 37.0531 74.1028C36.2955 74.1028 35.569 74.4033 35.0333 74.938C34.4976 75.4728 34.1967 76.198 34.1967 76.9543ZM74.1861 48.44C74.1861 49.1963 74.487 49.9215 75.0227 50.4563C75.5584 50.991 76.2849 51.2914 77.0425 51.2914C77.8 51.2914 78.5266 50.991 79.0623 50.4563C79.5979 49.9215 79.8989 49.1963 79.8989 48.44C79.8989 47.6838 79.5979 46.9585 79.0623 46.4238C78.5266 45.889 77.8 45.5886 77.0425 45.5886C76.2849 45.5886 75.5584 45.889 75.0227 46.4238C74.487 46.9585 74.1861 47.6838 74.1861 48.44Z"/>
</mask>
<path d="M29.3522 5.73707C34.1053 2.04162 40.3208 0 46.4963 0C50.1924 0 53.1802 1.26603 55.4482 3.27914C56.0595 3.82091 56.6022 4.4083 57.0878 5.01281C57.5733 4.4083 58.1161 3.82091 58.7273 3.27914C60.9953 1.26603 63.9831 0 67.6793 0C73.8548 0 80.076 2.04162 84.8176 5.73707C88.5195 8.6056 91.4158 12.5691 92.5527 17.3538C94.952 17.753 97.0829 18.9734 98.8082 20.5873C101.55 23.1593 103.51 26.8775 104.738 30.7042C105.989 34.5878 106.612 38.9505 106.423 43.1421C106.326 45.2863 106.012 47.4762 105.412 49.5692L105.783 49.7403C107.897 50.7326 109.611 52.2894 110.896 54.3596C113.324 58.266 114.181 63.889 114.181 71.0575C114.181 79.2981 111.022 84.8926 106.966 88.3657C104.853 90.1744 102.381 91.5156 99.7108 92.3006C98.7421 96.7571 96.7514 100.929 93.8952 104.488C89.7648 109.643 83.3437 114 74.7174 114C67.8049 114 62.3607 110.179 58.8644 106.529C58.2444 105.877 57.6535 105.198 57.0935 104.493C56.5314 105.196 55.9386 105.873 55.3168 106.524C51.8206 110.185 46.3763 114 39.4639 114C30.8318 114 24.4107 109.643 20.2861 104.488C17.4256 100.93 15.4309 96.7582 14.459 92.3006C11.7912 91.515 9.32042 90.1739 7.20952 88.3657C3.15345 84.8869 0 79.2981 0 71.0575C0 63.889 0.856917 58.266 3.27913 54.3596C4.56425 52.2328 6.48114 50.5584 8.7634 49.5692C8.17646 47.4735 7.8371 45.3165 7.75224 43.1421C7.56371 38.9505 8.18641 34.5878 9.4375 30.7042C10.6658 26.8832 12.6195 23.1593 15.3674 20.5873C17.0859 18.9151 19.263 17.7897 21.6229 17.3538C22.7654 12.5634 25.6561 8.6056 29.3522 5.73707ZM34.6194 12.4835C31.5002 14.9073 29.6722 18.1351 29.6722 21.8533C29.6716 22.5307 29.51 23.1982 29.2005 23.801C28.891 24.4038 28.4425 24.9246 27.8919 25.3205C27.3413 25.7164 26.7045 25.9762 26.0337 26.0783C25.3629 26.1805 24.6774 26.1221 24.0336 25.9081C23.251 25.6457 22.4226 25.7085 21.2344 26.8262C19.909 28.0637 18.5665 30.305 17.5953 33.3161C16.6239 36.3662 16.1909 39.5618 16.3157 42.76C16.4585 45.9308 17.2126 48.5655 18.4009 50.3448C18.5975 50.6396 18.7567 50.9576 18.875 51.2914H25.0562C29.1692 51.2906 33.1301 52.8437 36.143 55.6387C39.1559 58.4337 40.9975 62.2635 41.2977 66.3584C43.7586 67.3386 45.8018 69.1423 47.0775 71.4606C48.3532 73.7789 48.782 76.4677 48.2907 79.0669C47.7994 81.666 46.4184 84.0139 44.3841 85.7087C42.3498 87.4035 39.7887 88.3398 37.1391 88.3573C34.4895 88.3749 31.9162 87.4726 29.8596 85.8049C27.8029 84.1373 26.3908 81.8079 25.865 79.2154C25.3392 76.623 25.7323 73.9287 26.977 71.5937C28.2218 69.2587 30.2408 67.4282 32.6885 66.4154C32.4172 64.5886 31.497 62.92 30.096 61.714C28.6949 60.508 26.9062 59.8449 25.0562 59.8457H10.0602C9.20328 61.8303 8.56916 65.2577 8.56916 71.0575C8.56916 76.8801 10.6886 80.0737 12.7909 81.8758C15.0932 83.8433 17.6239 84.3566 18.3551 84.3566C19.4915 84.3566 20.5813 84.8072 21.3848 85.6093C22.1883 86.4114 22.6397 87.4993 22.6397 88.6337C22.6397 91.0289 23.9651 95.3802 26.9814 99.1441C29.8835 102.777 34.0196 105.446 39.4639 105.446C43.1029 105.446 46.4506 103.404 49.1184 100.621C50.4095 99.2638 51.415 97.8552 52.0777 96.7147C52.3284 96.2881 52.548 95.844 52.7346 95.3859L52.7689 95.3061V41.3115H47.6503C46.6559 43.7652 44.8377 45.7973 42.5071 47.0596C40.1765 48.3218 37.4787 48.7356 34.876 48.23C32.2733 47.7244 29.9278 46.3309 28.2415 44.2883C26.5551 42.2457 25.6329 39.6812 25.6329 37.0343C25.6329 34.3874 26.5551 31.8229 28.2415 29.7803C29.9278 27.7377 32.2733 26.3442 34.876 25.8386C37.4787 25.333 40.1765 25.7468 42.5071 27.0091C44.8377 28.2713 46.6559 30.3034 47.6503 32.7572H52.7689V18.2833L52.7518 17.9583C52.654 16.2019 52.3078 14.4682 51.7235 12.8086C51.2093 11.4399 50.5409 10.3735 49.7526 9.67204C49.0499 9.04472 48.0787 8.55428 46.4963 8.55428C42.1203 8.55428 37.7843 10.0256 34.6137 12.4892L34.6194 12.4835ZM61.4123 85.5086V95.3061L61.4409 95.3859C61.5552 95.6881 61.7722 96.1387 62.1036 96.7147C62.7606 97.8552 63.766 99.2638 65.0628 100.621C67.725 103.404 71.0784 105.446 74.7174 105.446C80.156 105.446 84.292 102.777 87.1998 99.1441C90.2104 95.3802 91.5415 91.0232 91.5415 88.6337C91.5415 87.4993 91.9929 86.4114 92.7964 85.6093C93.5999 84.8072 94.6898 84.3566 95.8261 84.3566C96.5573 84.3566 99.0824 83.8433 101.39 81.8758C103.487 80.0737 105.606 76.8801 105.606 71.0575C105.606 64.1685 104.704 60.6213 103.613 58.8705C103.271 58.2651 102.753 57.7777 102.127 57.4733C101.55 57.1996 100.682 56.9943 99.3394 56.9943C98.564 56.9942 97.8031 56.7841 97.1378 56.3863C96.4726 55.9884 95.928 55.4178 95.5621 54.7353C95.1962 54.0528 95.0227 53.2839 95.0602 52.5107C95.0976 51.7375 95.3446 50.9889 95.7747 50.3448C96.9629 48.5598 97.717 45.9308 97.8656 42.76C97.9884 39.5614 97.5535 36.3659 96.5802 33.3161C95.609 30.305 94.2665 28.0694 92.9469 26.8262C91.7529 25.7085 90.9245 25.6457 90.1476 25.9081C89.5035 26.1232 88.8174 26.1824 88.1458 26.0808C87.4743 25.9792 86.8366 25.7197 86.2853 25.3236C85.734 24.9276 85.2849 24.4064 84.9751 23.803C84.6653 23.1996 84.5036 22.5314 84.5034 21.8533C84.5034 18.1351 82.6753 14.9073 79.5561 12.4835C76.3969 10.0256 72.0552 8.54857 67.6735 8.54857C66.0968 8.54857 65.1314 9.04472 64.423 9.66633C63.5286 10.5419 62.8551 11.6169 62.4578 12.8029C61.8171 14.5619 61.4641 16.4124 61.4123 18.2833V76.9543H65.0457C67.0911 76.9543 69.0527 76.1432 70.499 74.6993C71.9454 73.2555 72.7579 71.2973 72.7579 69.2554V59.0188C70.2999 58.0262 68.2642 56.2111 66.9998 53.8846C65.7353 51.558 65.3208 48.8649 65.8273 46.2667C66.3338 43.6686 67.7297 41.3272 69.7759 39.6437C71.822 37.9603 74.391 37.0397 77.0425 37.0397C79.694 37.0397 82.263 37.9603 84.3091 39.6437C86.3552 41.3272 87.7512 43.6686 88.2577 46.2667C88.7641 48.8649 88.3496 51.558 87.0852 53.8846C85.8207 56.2111 83.7851 58.0262 81.3271 59.0188V69.2554C81.3271 73.566 79.6117 77.7001 76.5584 80.7481C73.505 83.7962 69.3638 85.5086 65.0457 85.5086H61.4123ZM37.0531 34.1829C36.2955 34.1829 35.569 34.4833 35.0333 35.0181C34.4976 35.5528 34.1967 36.2781 34.1967 37.0343C34.1967 37.7906 34.4976 38.5158 35.0333 39.0506C35.569 39.5853 36.2955 39.8857 37.0531 39.8857C37.8106 39.8857 38.5372 39.5853 39.0728 39.0506C39.6085 38.5158 39.9094 37.7906 39.9094 37.0343C39.9094 36.2781 39.6085 35.5528 39.0728 35.0181C38.5372 34.4833 37.8106 34.1829 37.0531 34.1829ZM34.1967 76.9543C34.1967 77.7105 34.4976 78.4358 35.0333 78.9705C35.569 79.5053 36.2955 79.8057 37.0531 79.8057C37.8106 79.8057 38.5372 79.5053 39.0728 78.9705C39.6085 78.4358 39.9094 77.7105 39.9094 76.9543C39.9094 76.198 39.6085 75.4728 39.0728 74.938C38.5372 74.4033 37.8106 74.1028 37.0531 74.1028C36.2955 74.1028 35.569 74.4033 35.0333 74.938C34.4976 75.4728 34.1967 76.198 34.1967 76.9543ZM74.1861 48.44C74.1861 49.1963 74.487 49.9215 75.0227 50.4563C75.5584 50.991 76.2849 51.2914 77.0425 51.2914C77.8 51.2914 78.5266 50.991 79.0623 50.4563C79.5979 49.9215 79.8989 49.1963 79.8989 48.44C79.8989 47.6838 79.5979 46.9585 79.0623 46.4238C78.5266 45.889 77.8 45.5886 77.0425 45.5886C76.2849 45.5886 75.5584 45.889 75.0227 46.4238C74.487 46.9585 74.1861 47.6838 74.1861 48.44Z" fill="#E4E4E4" stroke="#0D0D0D" stroke-width="2" mask="url(#path-1-inside-1_1173_1535)"/>
</svg>
