<svg width="27" height="26" viewBox="0 0 27 26" fill="none" xmlns="http://www.w3.org/2000/svg">
<path d="M26.0078 13.0923C26.0078 20.1618 20.2283 25.8898 13.2103 25.8898C6.14074 25.8898 0.412823 20.1618 0.412823 13.0923C0.412823 6.07427 6.14074 0.294757 13.2103 0.294757C20.2283 0.294757 26.0078 6.07427 26.0078 13.0923ZM11.7138 19.9038L21.2088 10.4089C21.5184 10.0993 21.5184 9.53166 21.2088 9.22205L20.0219 8.08678C19.7123 7.72556 19.1963 7.72556 18.8866 8.08678L11.1462 15.8272L7.48241 12.215C7.17279 11.8538 6.65676 11.8538 6.34715 12.215L5.16028 13.3503C4.85067 13.6599 4.85067 14.2275 5.16028 14.5371L10.527 19.9038C10.8366 20.2134 11.4042 20.2134 11.7138 19.9038Z" fill="#4BD569"/>
</svg>
