<svg width="26" height="26" viewBox="0 0 26 26" fill="none" xmlns="http://www.w3.org/2000/svg">
<g clip-path="url(#clip0_2152_1713)">
<path d="M16.2503 1.0835H4.33366C3.14199 1.0835 2.16699 2.0585 2.16699 3.25016V17.3335C2.16699 17.9293 2.65449 18.4168 3.25033 18.4168C3.84616 18.4168 4.33366 17.9293 4.33366 17.3335V4.3335C4.33366 3.73766 4.82116 3.25016 5.41699 3.25016H16.2503C16.8462 3.25016 17.3337 2.76266 17.3337 2.16683C17.3337 1.571 16.8462 1.0835 16.2503 1.0835ZM16.8895 6.056L22.122 11.2885C22.5228 11.6893 22.7503 12.2418 22.7503 12.816V22.7502C22.7503 23.9418 21.7753 24.9168 20.5837 24.9168H8.65616C7.46449 24.9168 6.50033 23.9418 6.50033 22.7502L6.51116 7.5835C6.51116 6.39183 7.47533 5.41683 8.66699 5.41683H15.3512C15.9253 5.41683 16.4778 5.64433 16.8895 6.056ZM16.2503 13.0002H21.1253L15.167 7.04183V11.9168C15.167 12.5127 15.6545 13.0002 16.2503 13.0002Z" fill="#F23322"/>
</g>
<defs>
<clipPath id="clip0_2152_1713">
<rect width="26" height="26" fill="white"/>
</clipPath>
</defs>
</svg>
