<svg width="34" height="34" viewBox="0 0 34 34" fill="none" xmlns="http://www.w3.org/2000/svg">
<path d="M16.6734 15.6395C13.5672 14.8321 12.5682 13.9974 12.5682 12.6974C12.5682 11.2059 13.9503 10.1659 16.2629 10.1659C18.206 10.1659 19.1776 10.9048 19.5334 12.0816C19.6976 12.629 20.1492 13.0395 20.7239 13.0395H21.1344C22.0376 13.0395 22.6807 12.1501 22.366 11.3016C21.7913 9.68693 20.4502 8.3459 18.3155 7.8259V6.88171C18.3155 5.74593 17.3987 4.8291 16.2629 4.8291C15.1271 4.8291 14.2103 5.74593 14.2103 6.88171V7.78485C11.5556 8.35958 9.4209 10.0838 9.4209 12.7248C9.4209 15.8858 12.0345 17.4595 15.8524 18.3763C19.2734 19.1973 19.9576 20.4015 19.9576 21.6741C19.9576 22.6183 19.2871 24.1236 16.2629 24.1236C14.005 24.1236 12.8419 23.3162 12.3903 22.1668C12.1851 21.6331 11.7198 21.2499 11.1588 21.2499H10.7756C9.85879 21.2499 9.21564 22.1804 9.55774 23.0289C10.3377 24.9309 12.1577 26.053 14.2103 26.4909V27.4077C14.2103 28.5435 15.1271 29.4604 16.2629 29.4604C17.3987 29.4604 18.3155 28.5435 18.3155 27.4077V26.5183C20.9839 26.012 23.1049 24.4657 23.1049 21.6605C23.1049 17.7742 19.7797 16.4468 16.6734 15.6395Z" fill="#F23322"/>
</svg>
