<svg width="35" height="35" viewBox="0 0 35 35" fill="none" xmlns="http://www.w3.org/2000/svg">
<path d="M24.1941 13.125H21.8753V5.83333C21.8753 5.03125 21.2191 4.375 20.417 4.375H14.5837C13.7816 4.375 13.1253 5.03125 13.1253 5.83333V13.125H10.8066C9.50866 13.125 8.85241 14.7 9.77116 15.6187L16.4649 22.3125C17.0337 22.8812 17.9524 22.8812 18.5212 22.3125L25.2149 15.6187C26.1337 14.7 25.492 13.125 24.1941 13.125ZM7.29199 27.7083C7.29199 28.5104 7.94824 29.1667 8.75033 29.1667H26.2503C27.0524 29.1667 27.7087 28.5104 27.7087 27.7083C27.7087 26.9062 27.0524 26.25 26.2503 26.25H8.75033C7.94824 26.25 7.29199 26.9062 7.29199 27.7083Z" fill="#F23322"/>
</svg>
