<svg width="27" height="26" viewBox="0 0 27 26" fill="none" xmlns="http://www.w3.org/2000/svg">
<path d="M13.2103 0.294757C20.2799 0.294757 26.0078 6.02267 26.0078 13.0923C26.0078 20.1618 20.2799 25.8898 13.2103 25.8898C6.14074 25.8898 0.412823 20.1618 0.412823 13.0923C0.412823 6.02267 6.14074 0.294757 13.2103 0.294757ZM19.4543 16.498L16.1001 13.0923L19.4543 9.73807C19.7123 9.53166 19.7123 9.11884 19.4543 8.86083L17.4418 6.84832C17.1837 6.5903 16.7709 6.5903 16.5645 6.84832L13.2103 10.2025L9.85614 6.84832C9.59813 6.5903 9.1853 6.5903 8.97889 6.84832L6.91478 8.86083C6.65676 9.11884 6.65676 9.53166 6.91478 9.73807L10.3206 13.0923L6.91478 16.4464C6.65676 16.7045 6.65676 17.1173 6.91478 17.3237L8.92729 19.3878C9.1853 19.6458 9.59813 19.6458 9.80454 19.3878L13.2103 15.982L16.5645 19.3878C16.7709 19.6458 17.1837 19.6458 17.4418 19.3878L19.4543 17.3753C19.7123 17.1173 19.7123 16.7045 19.4543 16.498Z" fill="#E52207"/>
</svg>
