<svg width="15" height="15" viewBox="0 0 15 15" fill="none" xmlns="http://www.w3.org/2000/svg">
<path fill-rule="evenodd" clip-rule="evenodd" d="M7.50008 14.5832C11.4122 14.5832 14.5834 11.412 14.5834 7.49984C14.5834 3.58771 11.4122 0.416504 7.50008 0.416504C3.58796 0.416504 0.416748 3.58771 0.416748 7.49984C0.416748 11.412 3.58796 14.5832 7.50008 14.5832ZM11.3045 5.25796C11.3377 5.22383 11.3636 5.18336 11.3808 5.13899C11.3979 5.09461 11.4059 5.04724 11.4044 4.99969C11.4028 4.95214 11.3917 4.90539 11.3717 4.86223C11.3517 4.81907 11.3232 4.78039 11.2879 4.74849C11.2526 4.7166 11.2112 4.69214 11.1662 4.67658C11.1213 4.66103 11.0736 4.65469 11.0262 4.65794C10.9787 4.6612 10.9324 4.67398 10.89 4.69553C10.8476 4.71709 10.8099 4.74696 10.7793 4.78338L6.53675 9.47148L4.20279 7.24342C4.13488 7.17851 4.04396 7.14324 3.95005 7.14537C3.85613 7.1475 3.7669 7.18684 3.702 7.25475C3.63709 7.32267 3.60182 7.41358 3.60395 7.5075C3.60607 7.60141 3.64542 7.69064 3.71333 7.75555L6.31079 10.2347L6.57394 10.4862L6.81796 10.2163L11.3045 5.25796Z" fill="#0FA958"/>
</svg>
