<svg width="22" height="23" viewBox="0 0 22 23" fill="none" xmlns="http://www.w3.org/2000/svg">
<path d="M9.23176 3.42032L9.23215 3.42001C10.2106 2.63419 11.7841 2.63846 12.7779 3.43009C12.778 3.43019 12.7782 3.43028 12.7783 3.43038L18.7781 8.23022C18.7787 8.23069 18.7793 8.23116 18.7798 8.23163C19.1187 8.50855 19.4144 8.94398 19.6055 9.44428C19.7966 9.94421 19.867 10.4663 19.8012 10.8986L18.6473 17.8038C18.6472 17.8043 18.6471 17.8048 18.647 17.8053C18.4215 19.099 17.1606 20.1668 15.8582 20.1668H6.14155C4.81958 20.1668 3.58742 19.1253 3.36202 17.815C3.36196 17.8146 3.36191 17.8143 3.36185 17.814L2.20721 10.9044L2.20702 10.9033C2.13321 10.4678 2.19923 9.94479 2.38978 9.44511C2.5803 8.94548 2.87957 8.5105 3.22673 8.23352L3.2276 8.23282L9.23176 3.42032ZM10.9999 18.1877C11.6519 18.1877 12.1874 17.6522 12.1874 17.0002V14.2502C12.1874 13.5982 11.6519 13.0627 10.9999 13.0627C10.3479 13.0627 9.81238 13.5982 9.81238 14.2502V17.0002C9.81238 17.6522 10.3479 18.1877 10.9999 18.1877Z" stroke="#040815" stroke-width="2" stroke-linecap="round" stroke-linejoin="round"/>
</svg>
