<svg width="27" height="27" viewBox="0 0 27 27" fill="none" xmlns="http://www.w3.org/2000/svg">
<path d="M13.4471 0.88776C20.5909 0.88776 26.474 6.77088 26.474 13.9147C26.474 21.111 20.5909 26.9416 13.4471 26.9416C6.25081 26.9416 0.420223 21.111 0.420223 13.9147C0.420223 6.77088 6.25081 0.88776 13.4471 0.88776ZM13.4471 6.66582C12.1865 6.66582 11.241 7.66385 11.241 8.87199C11.241 10.1327 12.1865 11.0782 13.4471 11.0782C14.6553 11.0782 15.6533 10.1327 15.6533 8.87199C15.6533 7.66385 14.6553 6.66582 13.4471 6.66582ZM16.3887 20.0079V18.7472C16.3887 18.4321 16.0735 18.1169 15.7583 18.1169H15.128V12.8641C15.128 12.5489 14.8128 12.2338 14.4977 12.2338H11.1359C10.7682 12.2338 10.5056 12.5489 10.5056 12.8641V14.1248C10.5056 14.4925 10.7682 14.7551 11.1359 14.7551H11.7662V18.1169H11.1359C10.7682 18.1169 10.5056 18.4321 10.5056 18.7472V20.0079C10.5056 20.3756 10.7682 20.6382 11.1359 20.6382H15.7583C16.0735 20.6382 16.3887 20.3756 16.3887 20.0079Z" fill="#155BCB"/>
</svg>
