<svg width="28" height="29" viewBox="0 0 28 29" fill="none" xmlns="http://www.w3.org/2000/svg">
<path fill-rule="evenodd" clip-rule="evenodd" d="M6.03457 0.455077C11.3287 -0.151692 16.6714 -0.151692 21.9655 0.455077C24.8577 0.788935 27.1895 3.14326 27.5291 6.14483C28.157 11.6955 28.157 17.3028 27.5291 22.8535C27.1895 25.855 24.8577 28.2094 21.967 28.5448C16.6724 29.1517 11.3292 29.1517 6.03457 28.5448C3.14233 28.2094 0.810565 25.855 0.470928 22.855C-0.156976 17.3039 -0.156976 11.696 0.470928 6.14483C0.810565 3.14326 3.14233 0.788935 6.03457 0.455077ZM21.6152 5.05035C21.2113 5.05035 20.8239 5.21626 20.5383 5.51159C20.2526 5.80693 20.0922 6.20748 20.0922 6.62515C20.0922 7.04281 20.2526 7.44337 20.5383 7.7387C20.8239 8.03403 21.2113 8.19995 21.6152 8.19995C22.0191 8.19995 22.4065 8.03403 22.6922 7.7387C22.9778 7.44337 23.1382 7.04281 23.1382 6.62515C23.1382 6.20748 22.9778 5.80693 22.6922 5.51159C22.4065 5.21626 22.0191 5.05035 21.6152 5.05035ZM6.76563 14.4992C6.76563 12.5153 7.52782 10.6126 8.88453 9.20978C10.2413 7.80695 12.0813 7.01885 14 7.01885C15.9187 7.01885 17.7588 7.80695 19.1155 9.20978C20.4722 10.6126 21.2344 12.5153 21.2344 14.4992C21.2344 16.483 20.4722 18.3857 19.1155 19.7885C17.7588 21.1914 15.9187 21.9795 14 21.9795C12.0813 21.9795 10.2413 21.1914 8.88453 19.7885C7.52782 18.3857 6.76563 16.483 6.76563 14.4992Z" fill="black"/>
<path d="M14 10C12.6739 10 11.4021 10.5268 10.4645 11.4645C9.52678 12.4021 9 13.6739 9 15C9 16.3261 9.52678 17.5979 10.4645 18.5355C11.4021 19.4732 12.6739 20 14 20C15.3261 20 16.5979 19.4732 17.5355 18.5355C18.4732 17.5979 19 16.3261 19 15C19 13.6739 18.4732 12.4021 17.5355 11.4645C16.5979 10.5268 15.3261 10 14 10Z" fill="black"/>
</svg>
