<svg width="110" height="87" viewBox="0 0 110 87" fill="none" xmlns="http://www.w3.org/2000/svg">
<path d="M19.1181 50.9341L4.88302 70.9782C4.24091 72.2073 3.93978 73.5811 4.00998 74.9611C4.08018 76.3411 4.51923 77.6785 5.28288 78.8386C6.0032 79.9714 7.00535 80.9051 8.19472 81.5515C9.3841 82.1979 10.7215 82.5357 12.0805 82.533H98.1309C99.49 82.5357 100.827 82.1979 102.017 81.5515C103.206 80.9051 104.208 79.9714 104.929 78.8386C105.63 77.6437 106 76.2882 106 74.9084C106 73.5286 105.63 72.1731 104.929 70.9782L91.0933 50.9341M19.1181 50.9341V11.6319C19.1181 9.5472 19.9607 7.54787 21.4605 6.07375C22.9602 4.59963 24.9944 3.77148 27.1154 3.77148H83.0961C85.2171 3.77148 87.2512 4.59963 88.751 6.07375C90.2508 7.54787 91.0933 9.5472 91.0933 11.6319V50.9341M19.1181 50.9341H91.0933" stroke="#E4E4E4" stroke-width="7" stroke-linecap="round" stroke-linejoin="round"/>
</svg>
