<svg width="28" height="29" viewBox="0 0 28 29" fill="none" xmlns="http://www.w3.org/2000/svg">
<path d="M24.8889 0C25.714 0 26.5053 0.339483 27.0888 0.943767C27.6722 1.54805 28 2.36764 28 3.22222V25.7778C28 26.6324 27.6722 27.452 27.0888 28.0562C26.5053 28.6605 25.714 29 24.8889 29H3.11111C2.28599 29 1.49467 28.6605 0.911223 28.0562C0.327777 27.452 0 26.6324 0 25.7778V3.22222C0 2.36764 0.327777 1.54805 0.911223 0.943767C1.49467 0.339483 2.28599 0 3.11111 0H24.8889ZM24.1111 24.9722V16.4333C24.1111 15.0404 23.5768 13.7044 22.6258 12.7195C21.6748 11.7345 20.3849 11.1811 19.04 11.1811C17.7178 11.1811 16.1778 12.0189 15.4311 13.2756V11.4872H11.0911V24.9722H15.4311V17.0294C15.4311 15.7889 16.3956 14.7739 17.5933 14.7739C18.1709 14.7739 18.7248 15.0115 19.1333 15.4345C19.5417 15.8575 19.7711 16.4312 19.7711 17.0294V24.9722H24.1111ZM6.03556 8.95778C6.72865 8.95778 7.39337 8.67261 7.88346 8.16501C8.37356 7.65742 8.64889 6.96896 8.64889 6.25111C8.64889 4.75278 7.48222 3.52833 6.03556 3.52833C5.33833 3.52833 4.66966 3.8152 4.17665 4.32582C3.68364 4.83644 3.40667 5.52899 3.40667 6.25111C3.40667 7.74944 4.58889 8.95778 6.03556 8.95778ZM8.19778 24.9722V11.4872H3.88889V24.9722H8.19778Z" fill="black"/>
</svg>
