<svg width="22" height="23" viewBox="0 0 22 23" fill="none" xmlns="http://www.w3.org/2000/svg">
<path d="M2.75 8.85075V14.1399C2.75 16.0832 2.75 16.0832 4.58333 17.3207L9.625 20.2357C10.3858 20.6757 11.6233 20.6757 12.375 20.2357L17.4167 17.3207C19.25 16.0832 19.25 16.0832 19.25 14.1491V8.85075C19.25 6.91658 19.25 6.91658 17.4167 5.67908L12.375 2.76408C11.6233 2.32408 10.3858 2.32408 9.625 2.76408L4.58333 5.67908C2.75 6.91658 2.75 6.91658 2.75 8.85075Z" stroke="#040815" stroke-width="2" stroke-linecap="round" stroke-linejoin="round"/>
<path d="M11 14.25C12.5188 14.25 13.75 13.0188 13.75 11.5C13.75 9.98122 12.5188 8.75 11 8.75C9.48122 8.75 8.25 9.98122 8.25 11.5C8.25 13.0188 9.48122 14.25 11 14.25Z" stroke="#040815" stroke-width="2" stroke-linecap="round" stroke-linejoin="round"/>
</svg>
