<svg width="34" height="40" viewBox="0 0 34 40" fill="none" xmlns="http://www.w3.org/2000/svg">
<path d="M33.6557 19.0233C32.2041 26.3833 27.2974 28.9367 21.0407 28.9367H20.0907C19.2891 28.9367 18.6391 29.4867 18.5391 30.2383L18.4391 30.6383L17.2374 38.3483L17.1874 38.6983C17.0357 39.45 16.3841 40 15.6341 40H9.02573C8.47573 39.95 8.12573 39.45 8.22573 38.9483L8.72573 35.545H0.915731C0.315731 35.495 -0.0859356 34.945 0.015731 34.3433L5.22073 1.50167C5.37073 0.65 6.12073 0 6.9724 0H19.3874C23.6924 0 27.0474 0.9 28.8491 3.00333C30.5507 4.955 31.0507 7.05833 30.5507 10.1617C30.1507 9.96167 29.6991 9.76167 29.1991 9.61167C28.5491 9.41167 27.8974 9.26167 27.2474 9.16167C26.2974 9.01167 25.1957 8.91167 24.0441 8.91167H14.3324C13.5307 8.91167 12.8807 9.46167 12.7807 10.2133L10.6791 23.33L10.6124 23.7433C10.7741 22.9033 11.4891 22.23 12.3807 22.23H16.0357C23.1957 22.23 28.8024 19.3267 30.4041 10.915C30.4541 10.665 30.5041 10.415 30.5541 10.165C31.2541 10.515 31.8557 10.9667 32.3557 11.5667C33.9557 13.3667 34.2557 15.97 33.6557 19.0233Z" fill="#0D0D0D"/>
</svg>
