<svg width="15" height="15" viewBox="0 0 15 15" fill="none" xmlns="http://www.w3.org/2000/svg">
<path fill-rule="evenodd" clip-rule="evenodd" d="M15 7.5C15 11.6423 11.6423 15 7.5 15C3.35775 15 0 11.6423 0 7.5C0 3.35775 3.35775 0 7.5 0C11.6423 0 15 3.35775 15 7.5ZM4.58325 10.4167C4.51295 10.3464 4.47345 10.2511 4.47345 10.1516C4.47345 10.0522 4.51295 9.95682 4.58325 9.8865L6.96975 7.5L4.58325 5.1135C4.51494 5.04277 4.47714 4.94805 4.478 4.84972C4.47885 4.7514 4.51829 4.65735 4.58782 4.58782C4.65735 4.51829 4.7514 4.47885 4.84972 4.478C4.94805 4.47714 5.04277 4.51494 5.1135 4.58325L7.5 6.96975L9.8865 4.58325C9.95723 4.51494 10.052 4.47714 10.1503 4.478C10.2486 4.47885 10.3427 4.51829 10.4122 4.58782C10.4817 4.65735 10.5211 4.7514 10.522 4.84972C10.5229 4.94805 10.4851 5.04277 10.4167 5.1135L8.03025 7.5L10.4167 9.8865C10.4851 9.95723 10.5229 10.052 10.522 10.1503C10.5211 10.2486 10.4817 10.3427 10.4122 10.4122C10.3427 10.4817 10.2486 10.5211 10.1503 10.522C10.052 10.5229 9.95723 10.4851 9.8865 10.4167L7.5 8.03025L5.1135 10.4167C5.04318 10.4871 4.94781 10.5265 4.84838 10.5265C4.74894 10.5265 4.65357 10.4871 4.58325 10.4167Z" fill="#870000"/>
</svg>
