<svg width="55" height="18" viewBox="0 0 55 18" fill="none" xmlns="http://www.w3.org/2000/svg">
<path d="M21.4466 0.587059L14.3771 17.4553H9.76463L6.28838 3.99356C6.07463 3.16331 5.89238 2.86181 5.24888 2.50856C4.19813 1.94156 2.46788 1.40831 0.942383 1.07531L1.04813 0.58481H8.47088C9.41813 0.58481 10.2686 1.21706 10.4824 2.30381L12.3206 12.0666L16.8611 0.58481L21.4466 0.587059ZM39.5164 11.9451C39.5366 7.49681 33.3604 7.25381 33.4054 5.26256C33.4166 4.65506 33.9926 4.01156 35.2549 3.84956C35.8804 3.76631 37.6039 3.70556 39.5591 4.60106L40.3241 1.02581C39.2734 0.64331 37.9211 0.278809 36.2426 0.278809C31.9294 0.278809 28.8941 2.57156 28.8694 5.85431C28.8401 8.28206 31.0361 9.63656 32.6899 10.4443C34.3886 11.2723 34.9579 11.7988 34.9511 12.5413C34.9399 13.6731 33.5944 14.1681 32.3411 14.1906C30.1474 14.2243 28.8739 13.5966 27.8569 13.1241L27.0671 16.8231C28.0841 17.2911 29.9696 17.6961 31.9204 17.7208C36.5036 17.7208 39.5029 15.4506 39.5164 11.9451ZM50.9059 17.4531H54.9424L51.4211 0.58481H47.6951C46.8581 0.58481 46.1516 1.07306 45.8366 1.82231L39.2936 17.4531H43.8746L44.7836 14.9331H50.3816L50.9059 17.4531ZM46.0369 11.4771L48.3341 5.14331L49.6549 11.4771H46.0369ZM27.6814 0.587059L24.0701 17.4553H19.7074L23.3186 0.587059H27.6814Z" fill="#0D0D0D"/>
</svg>
