<svg width="27" height="27" viewBox="0 0 27 27" fill="none" xmlns="http://www.w3.org/2000/svg">
<path fill-rule="evenodd" clip-rule="evenodd" d="M13.2103 26.4207C20.5062 26.4207 26.4206 20.5062 26.4206 13.2103C26.4206 5.91446 20.5062 0 13.2103 0C5.91446 0 0 5.91446 0 13.2103C0 20.5062 5.91446 26.4207 13.2103 26.4207ZM20.9629 20.9678C22.1379 20.9678 22.8682 19.7293 22.2966 18.7131L14.6753 5.47105C14.1037 4.48662 12.6112 4.45487 12.0396 5.47105L4.41825 18.7131C3.84665 19.6975 4.57702 20.9678 5.75198 20.9678H20.9629ZM11.9126 17.4111C11.9126 16.6173 12.5477 15.9504 13.3733 15.9504C14.1672 15.9504 14.8341 16.6173 14.8341 17.4111C14.8341 18.2368 14.1672 18.8719 13.3733 18.8719C12.5477 18.8719 11.9126 18.2368 11.9126 17.4111ZM12.1984 15.0295L11.9761 10.7107C11.9443 10.4884 12.1349 10.2979 12.3571 10.2979H14.3577C14.58 10.2979 14.7706 10.4884 14.7388 10.7107L14.5165 15.0295C14.4848 15.2518 14.326 15.3788 14.1355 15.3788H12.5794C12.3889 15.3788 12.2301 15.2518 12.1984 15.0295Z" fill="#FFCD07"/>
</svg>
