<svg width="27" height="27" viewBox="0 0 27 27" fill="none" xmlns="http://www.w3.org/2000/svg">
<path d="M13.2113 0.953936C20.2809 0.953936 26.0088 6.68185 26.0088 13.7514C26.0088 20.821 20.2809 26.5489 13.2113 26.5489C6.14171 26.5489 0.413799 20.821 0.413799 13.7514C0.413799 6.68185 6.14171 0.953936 13.2113 0.953936ZM19.4552 17.1572L16.1011 13.7514L19.4552 10.3973C19.7133 10.1908 19.7133 9.77802 19.4552 9.52001L17.4427 7.5075C17.1847 7.24948 16.7719 7.24948 16.5655 7.5075L13.2113 10.8617L9.85712 7.5075C9.5991 7.24948 9.18628 7.24948 8.97987 7.5075L6.91576 9.52001C6.65774 9.77802 6.65774 10.1908 6.91576 10.3973L10.3215 13.7514L6.91576 17.1056C6.65774 17.3636 6.65774 17.7765 6.91576 17.9829L8.92827 20.047C9.18628 20.305 9.5991 20.305 9.80551 20.047L13.2113 16.6412L16.5655 20.047C16.7719 20.305 17.1847 20.305 17.4427 20.047L19.4552 18.0345C19.7133 17.7765 19.7133 17.3636 19.4552 17.1572Z" fill="#C2C2C2"/>
</svg>
