<svg width="210" height="828" viewBox="0 0 210 828" fill="none" xmlns="http://www.w3.org/2000/svg">
<path d="M214.219 412.23L214.219 220.671C214.237 215.181 216.506 209.922 220.531 206.04C224.556 202.158 230.009 199.97 235.701 199.953L270.012 199.953L270.012 164.077C267.091 164.077 234.884 164.077 234.884 164.077C227.804 164.169 220.801 165.508 214.219 168.028L214.219 57.4417C214.237 51.9522 216.506 46.6924 220.531 42.8107C224.556 38.929 230.009 36.7407 235.701 36.7236L270.012 36.7236L270.012 0.847522C267.091 0.847523 234.884 0.847524 234.884 0.847524C220.264 1.04937 206.253 6.52685 195.614 16.1998C187.278 8.63671 176.828 3.59319 165.554 1.69183C154.28 -0.209479 142.676 1.11456 132.173 5.50054C121.671 9.88653 112.73 17.1425 106.454 26.3729C100.178 35.6031 96.8414 46.4038 96.8568 57.4417L96.8568 212.584L95.6366 212.584C81.3421 212.516 67.6531 207.01 57.5452 197.261C47.4374 187.513 41.7276 174.311 41.657 160.525L41.657 2.66131L0.987513 2.66132L0.98752 160.525C0.98752 162.328 1.04349 164.12 1.15543 165.923L0.98752 165.923L0.987527 323.754C0.987529 368.44 34.7388 405.903 78.8785 413.59C34.7388 421.277 0.987533 458.74 0.987535 503.426L0.987542 661.3L1.21144 661.3C1.06592 663.341 0.987542 665.403 0.987542 667.476L0.987549 825.339L41.657 825.339L41.657 667.476C41.7276 653.689 47.4374 640.487 57.5452 630.739C67.6531 620.991 81.3421 615.484 95.6366 615.416L96.8568 615.416L96.8568 770.559C96.8414 781.597 100.178 792.397 106.454 801.628C112.73 810.858 121.671 818.114 132.173 822.5C142.676 826.886 154.281 828.21 165.554 826.308C176.828 824.407 187.278 819.364 195.614 811.8C206.253 821.473 220.264 826.951 234.884 827.153C234.884 827.153 267.091 827.153 270.012 827.153L270.012 791.277L235.701 791.277C230.01 791.26 224.556 789.071 220.531 785.19C216.506 781.308 214.237 776.048 214.219 770.559L214.219 659.162C220.801 661.683 227.804 663.022 234.884 663.114C234.884 663.114 267.091 663.114 270.012 663.114L270.012 627.238L235.701 627.238C230.01 627.221 224.556 625.032 220.531 621.151C216.506 617.269 214.237 612.009 214.219 606.52L214.219 412.186L214.219 412.23ZM134.056 451.366L177.02 451.366L177.02 606.541C177.02 612.036 174.757 617.306 170.728 621.191C166.7 625.077 161.235 627.259 155.538 627.259C149.841 627.259 144.377 625.077 140.348 621.191C136.319 617.306 134.056 612.036 134.056 606.541L134.056 451.366ZM177.02 220.649L177.02 375.824L134.056 375.824L134.056 220.671C134.056 215.176 136.319 209.906 140.348 206.021C144.377 202.136 149.841 199.953 155.538 199.953C161.235 199.953 166.699 202.136 170.728 206.021C174.757 209.906 177.02 215.176 177.02 220.671L177.02 220.649ZM155.538 36.7128C161.228 36.7299 166.68 38.9167 170.705 42.7961C174.729 46.6754 177 51.9324 177.02 57.4201L177.02 168.028C163.22 162.758 147.856 162.758 134.056 168.028L134.056 57.4417C134.071 51.9503 136.338 46.6877 140.364 42.8037C144.389 38.9197 149.844 36.7299 155.538 36.7128ZM41.6458 323.754L41.6458 235.386C57.4613 246.081 76.3098 251.814 95.6254 251.807L96.8456 251.807L96.8456 375.824L95.6254 375.824C81.3289 375.756 67.6383 370.248 57.5301 360.497C47.4219 350.747 41.7134 337.542 41.6458 323.754ZM95.6366 576.193C76.321 576.186 57.4725 581.92 41.657 592.614L41.657 503.437C41.7276 489.651 47.4374 476.449 57.5452 466.7C67.6531 456.952 81.3421 451.445 95.6366 451.377L96.8568 451.377L96.8568 576.193L95.6366 576.193ZM155.538 791.288C149.846 791.27 144.392 789.082 140.367 785.2C136.343 781.319 134.074 776.059 134.056 770.569L134.056 659.162C147.856 664.433 163.22 664.433 177.02 659.162L177.02 770.58C177 776.068 174.729 781.325 170.705 785.204C166.68 789.084 161.228 791.27 155.538 791.288Z" fill="#F23322"/>
</svg>
