<svg width="700" height="567" viewBox="0 0 700 567" fill="none" xmlns="http://www.w3.org/2000/svg">
<path d="M459.301 412.946C458.931 387.183 448.921 362.494 431.244 343.749C445.056 329.059 454.266 310.646 457.738 290.783C461.209 270.919 458.789 250.474 450.777 231.97C442.765 213.465 429.512 197.711 412.652 186.65C395.792 175.589 376.062 169.706 355.898 169.726H72.4629V167.63C72.5823 142.438 82.6427 118.311 100.456 100.498C118.27 82.6842 142.396 72.6238 167.588 72.5045H1334.94V0.804688H167.588C75.8742 0.804688 0.810059 75.9158 0.810059 167.583V334.376V376.532H355.914C365.944 376.561 375.555 380.559 382.648 387.651C389.74 394.744 393.737 404.355 393.766 414.385V566.15L459.316 538C459.316 532.789 459.332 412.946 459.301 412.946ZM355.945 310.982H72.4629V235.276H355.851C365.89 235.276 375.518 239.265 382.617 246.363C389.716 253.462 393.704 263.09 393.704 273.129C393.704 283.169 389.716 292.797 382.617 299.895C375.518 306.994 365.89 310.982 355.851 310.982H355.945Z" fill="#F23322"/>
</svg>
