<svg xmlns="http://www.w3.org/2000/svg" viewBox="0 0 659.57 162.42"><defs><style>.cls-1{fill:#e4e4e4;}</style></defs><title>Logo Horizontal Cinza</title><g id="Camada_2" data-name="Camada 2"><path class="cls-1" d="M127.88,0a32,32,0,0,0-21.47,8.7,32,32,0,0,0-54,23.38V120h-.66A29.66,29.66,0,0,1,22.23,90.5V1H0V90.5a51.9,51.9,0,0,0,51.75,51.75H103.5v0h13.08V32.08a11.78,11.78,0,0,1,11.75-11.75h18.76V0ZM72.75,32.08a11.75,11.75,0,0,1,23.49,0V120H72.75Z"/><path class="cls-1" d="M271.94,21.18v89.49a29.66,29.66,0,0,1-29.51,29.51h-.67v-88a32,32,0,0,0-54-23.38,32,32,0,0,0-21.47-8.7H147.09V40.48h18.76a11.78,11.78,0,0,1,11.75,11.75V162.37h13.09v0h51.75a51.9,51.9,0,0,0,51.75-51.75V21.18ZM209.68,40.48a11.78,11.78,0,0,1,11.75,11.75v88H197.93v-88A11.78,11.78,0,0,1,209.68,40.48Z"/><path class="cls-1" d="M323.22,38h22.26V49.79c3-13.29,11.46-13.42,27.07-13.42a23.15,23.15,0,0,1,5.81.66V58.29a32.51,32.51,0,0,0-5.65-.5c-16.78,0-27.24,11.63-27.24,28.9v37.7H323.22Z"/><path class="cls-1" d="M384.35,81.21c0-29.07,21.59-44.85,43.68-44.85,21.93,0,46.84,15.45,42,53.48H405.44c3.16,11.79,13.45,17.94,26.41,17.94,8.47,0,15.95-2.32,22.26-7.81l10.13,10.8c-7.14,9-19.6,15.28-34.88,15.28C405.61,126.06,384.35,109.94,384.35,81.21Zm65.94-7.64C449,61.28,438.66,55.13,428.2,55.13c-10.3,0-20.26,6-23.09,18.44Z"/><path class="cls-1" d="M479.19,81.21c0-29.23,22.76-44.85,45.51-44.85,15.28,0,28.9,7.14,37.21,21.26L545.63,68.09c-4.48-6.81-11.79-11.63-20.76-11.63-12.46,0-23.75,9.3-23.75,24.75S512.41,106,524.87,106c9,0,16.28-4.82,20.76-11.63l16.28,10.46a42.21,42.21,0,0,1-37.21,21.26C501.95,126.06,479.19,110.44,479.19,81.21Z"/><path class="cls-1" d="M568.55,81.21c0-29.23,22.92-44.85,45.51-44.85,22.42,0,45.51,15.61,45.51,44.85s-23.09,44.85-45.51,44.85C591.47,126.06,568.55,110.44,568.55,81.21ZM614.06,106c12.46,0,23.42-9.3,23.42-24.75s-11-24.75-23.42-24.75-23.59,9.3-23.59,24.75S601.61,106,614.06,106Z"/></g></svg>