<svg id="Camada_2" data-name="Camada 2" xmlns="http://www.w3.org/2000/svg" viewBox="100 450 900 180"><defs><style>.cls-1{fill:#e4e4e4;}</style></defs><title>Logo Horizontal Cinza</title><path class="cls-1" d="M184.25,490.88a32,32,0,0,1,54-23.38,32,32,0,0,1,21.47-8.7h19.21v20.34H260.16a11.78,11.78,0,0,0-11.75,11.75V601H228.08V490.87a11.75,11.75,0,0,0-23.49,0V601H184.25Z"/><path class="cls-1" d="M154.08,459.8v89.49a29.66,29.66,0,0,0,29.51,29.51h51.75V601H183.59a51.9,51.9,0,0,1-51.75-51.75V459.8Z"/><path class="cls-1" d="M373.6,621.16H353.27V511a11.75,11.75,0,0,0-23.49,0V621.16H309.44V511a11.78,11.78,0,0,0-11.75-11.75H278.93V478.94h19.21a32,32,0,0,1,21.47,8.7,32,32,0,0,1,54,23.38Z"/><path class="cls-1" d="M426,480v89.49a51.9,51.9,0,0,1-51.75,51.75H322.52V599h51.75a29.66,29.66,0,0,0,29.51-29.51V480Z"/><path class="cls-1" d="M472.79,479h31.46v16.62c4.23-18.78,16.2-19,38.26-19a32.72,32.72,0,0,1,8.22.94v30a46,46,0,0,0-8-.7c-23.71,0-38.5,16.43-38.5,40.85V601H472.79Z"/><path class="cls-1" d="M559.18,540c0-41.08,30.52-63.38,61.74-63.38,31,0,66.2,21.83,59.39,75.59H589c4.46,16.67,19,25.35,37.33,25.35,12,0,22.54-3.29,31.46-11l14.32,15.26c-10.09,12.68-27.7,21.6-49.3,21.6C589.23,603.38,559.18,580.61,559.18,540Zm93.19-10.8c-1.88-17.37-16.43-26.06-31.22-26.06-14.55,0-28.64,8.45-32.63,26.06Z"/><path class="cls-1" d="M693.22,540c0-41.31,32.16-63.38,64.32-63.38,21.6,0,40.85,10.09,52.58,30l-23,14.79c-6.34-9.62-16.67-16.43-29.34-16.43-17.61,0-33.57,13.15-33.57,35s16,35,33.57,35c12.68,0,23-6.81,29.34-16.43l23,14.79c-11.74,19.72-31,30-52.58,30C725.38,603.38,693.22,581.32,693.22,540Z"/><path class="cls-1" d="M819.52,540c0-41.31,32.4-63.38,64.32-63.38,31.69,0,64.32,22.07,64.32,63.38s-32.63,63.38-64.32,63.38C851.91,603.38,819.52,581.32,819.52,540Zm64.32,35c17.61,0,33.1-13.15,33.1-35s-15.49-35-33.1-35-33.33,13.15-33.33,35S866.23,575,883.84,575Z"/></svg>