<svg id="Camada_2" data-name="Camada 2" xmlns="http://www.w3.org/2000/svg" viewBox="0 0 1080 1080"><defs><style>.cls-1{fill:#f23322;}</style></defs><title>Logo Laranja</title><path class="cls-1" d="M512.54,340.43a45.68,45.68,0,0,0-30.68,12.44,45.79,45.79,0,0,0-77.17,33.41V511.94h-.95a42.38,42.38,0,0,1-42.18-42.18V341.87H329.8V469.76a74.17,74.17,0,0,0,74,74h74v0H496.4V386.28a16.83,16.83,0,0,1,16.79-16.79H540V340.43Zm-78.78,45.85a16.79,16.79,0,0,1,33.57,0V511.94H433.76Z"/><path class="cls-1" d="M718.43,370.69V498.59a42.38,42.38,0,0,1-42.18,42.18h-1V415.07a45.79,45.79,0,0,0-77.17-33.41,45.68,45.68,0,0,0-30.68-12.44H540v29.06h26.81a16.83,16.83,0,0,1,16.79,16.79V572.48h18.7v.06h74a74.17,74.17,0,0,0,74-74V370.69Zm-89,27.59a16.84,16.84,0,0,1,16.79,16.79V540.76H612.66V415.06A16.83,16.83,0,0,1,629.45,398.28Z"/><path class="cls-1" d="M345.38,637.69h25.76v13.61c3.46-15.38,13.26-15.53,31.33-15.53a26.79,26.79,0,0,1,6.73.77v24.6a37.62,37.62,0,0,0-6.54-.58c-19.41,0-31.52,13.46-31.52,33.45v43.63H345.38Z"/><path class="cls-1" d="M416.11,687.67c0-33.64,25-51.9,50.55-51.9,25.37,0,54.21,17.88,48.63,61.89H440.52c3.65,13.65,15.57,20.76,30.56,20.76,9.8,0,18.45-2.69,25.76-9l11.72,12.49c-8.27,10.38-22.68,17.68-40.37,17.68C440.72,739.57,416.11,720.92,416.11,687.67Zm76.31-8.84c-1.54-14.22-13.46-21.34-25.56-21.34-11.92,0-23.45,6.92-26.72,21.34Z"/><path class="cls-1" d="M525.87,687.67c0-33.83,26.33-51.9,52.67-51.9,17.68,0,33.45,8.27,43.06,24.6l-18.84,12.11c-5.19-7.88-13.65-13.46-24-13.46-14.42,0-27.49,10.77-27.49,28.64s13.07,28.64,27.49,28.64c10.38,0,18.84-5.57,24-13.46L621.6,715c-9.61,16.15-25.37,24.6-43.06,24.6C552.21,739.57,525.87,721.5,525.87,687.67Z"/><path class="cls-1" d="M629.29,687.67c0-33.83,26.53-51.9,52.67-51.9,25.95,0,52.67,18.07,52.67,51.9s-26.72,51.9-52.67,51.9C655.81,739.57,629.29,721.5,629.29,687.67ZM682,716.31c14.42,0,27.1-10.76,27.1-28.64S696.37,659,682,659s-27.3,10.77-27.3,28.64S667.54,716.31,682,716.31Z"/></svg>